# xmcd
# 
# Track frame offsets:
#     150
#     19125
#     34912
#     45587
#     60321
#     77277
#     93664
#     107539
#     121913
#     130728
#     151327
#     166545
#     176524
#     191727
#     207311
# 
# Disc length: 3000
# 
# Revision: 0
# Processed by: cddbd v1.5.2PL0 Copyright (c) Steve Scherf et al.
# Submitted via: fre:ac v1.0.31
# 
DISCID=b30bb60f
DTITLE=Steve Earle - Transcendental Blues
DYEAR=2000
DGENRE=Rock/Pop
TTITLE0=Transcendental Blues
TTITLE1=Everyone's In Love With You
TTITLE2=Another Town
TTITLE3=I Can Wait
TTITLE4=The Boy Who Never Cried
TTITLE5=Steve's Last Ramble
TTITLE6=The Galway Girl
TTITLE7=Lonelier Than This
TTITLE8=Wherever I Go
TTITLE9=When I Fall
TTITLE10=I Don't Want To Lose You Yet
TTITLE11=Halo 'Round The Moon
TTITLE12=Until The Day I Die
TTITLE13=All My Life
TTITLE14=Over Yonder (Jonathan's Song)
EXTD=
EXTT0=
EXTT1=
EXTT2=
EXTT3=
EXTT4=
EXTT5=
EXTT6=
EXTT7=
EXTT8=
EXTT9=
EXTT10=
EXTT11=
EXTT12=
EXTT13=
EXTT14=
PLAYORDER=
